HIERARCHY
ROOT Hips
{
    OFFSET 0.0 0.0 0.0
    CHANNELS 6 Xposition Yposition Zposition Zrotation Xrotation Yrotation
    JOINT RightUpLeg
    {
        OFFSET -0.1 0.0 0.0
        CHANNELS 3 Zrotation Xrotation Yrotation
        JOINT RightLeg
        {
            OFFSET 0.0 -0.45 0.0
            CHANNELS 1 Xrotation
            JOINT RightFoot
            {
                OFFSET 0.0 -0.45 0.0
                CHANNELS 0
                End Site
                {
                    OFFSET 0.0 -0.1 0.1
                }
            }
        }
    }
    JOINT LeftUpLeg
    {
        OFFSET 0.1 0.0 0.0
        CHANNELS 3 Zrotation Xrotation Yrotation
        JOINT LeftLeg
        {
            OFFSET 0.0 -0.45 0.0
            CHANNELS 1 Xrotation
            JOINT LeftFoot
            {
                OFFSET 0.0 -0.45 0.0
                CHANNELS 0
                End Site
                {
                    OFFSET 0.0 -0.1 0.1
                }
            }
        }
    }
    JOINT Spine
    {
        OFFSET 0.0 0.2 0.0
        CHANNELS 3 Zrotation Xrotation Yrotation
        End Site
        {
            OFFSET 0.0 0.5 0.0
        }
    }
}
MOTION
Frames: 45
Frame Time: 0.016667
0.0429 140.1614 -0.1108 0.0000 0.0000 0.0000 -0.9119 -0.9110 9.8006 26.7043 2.3485 1.0116 13.2521 29.2712 0.0969 1.0208 -1.3682
0.0027 139.6856 -0.8172 0.0000 0.0000 0.0000 -1.9055 -1.8188 4.8583 6.6788 6.1562 2.3682 10.0114 11.2986 -0.4103 1.4815 -1.7680
-0.1116 137.8488 -1.3511 0.0000 0.0000 0.0000 -1.9514 -1.9411 -2.7055 -13.5112 8.6843 3.4256 9.2617 0.3821 0.3932 0.7162 -1.2008
-0.1947 134.8399 -1.6171 0.0000 0.0000 0.0000 -1.5373 -1.8816 -12.6221 -31.2170 9.8461 5.1470 9.1541 -7.4043 1.0316 -0.4927 -1.3464
-0.3399 130.7498 -1.8361 0.0000 0.0000 0.0000 -1.8877 -1.6059 -21.8667 -45.5930 9.2669 5.5100 9.5997 -15.2945 1.1756 -1.6600 -0.6077
-0.4521 125.7181 -1.9361 0.0000 0.0000 0.0000 -3.9181 -2.6767 -30.1247 -54.7939 7.3934 5.3109 10.0070 -21.6900 1.8158 -1.6816 0.2660
-0.5094 120.3665 -1.6141 0.0000 0.0000 0.0000 -7.1511 -4.3459 -37.3863 -56.0084 6.1227 5.2523 10.0966 -23.5385 3.2884 -0.3135 0.7416
-0.3010 117.2176 -0.7174 0.0000 0.0000 0.0000 -9.9991 -4.3026 -41.4110 -61.3884 4.9533 5.6465 12.0122 -27.4883 2.6835 0.4255 0.0836
0.2354 115.0762 0.9959 0.0000 0.0000 0.0000 -11.0630 -3.7533 -47.0065 -72.2240 4.1327 5.6428 12.3976 -34.8260 0.9566 -0.0117 -0.3865
0.9352 112.9206 3.4922 0.0000 0.0000 0.0000 -11.9970 -2.7994 -54.4366 -79.0197 3.6153 5.4950 12.1069 -40.1082 0.4273 -0.3511 -0.4840
1.7986 110.9067 6.6265 0.0000 0.0000 0.0000 -13.1127 -1.1972 -61.2793 -81.9074 2.4559 5.2726 12.1067 -43.2470 0.7865 -0.0942 -0.4893
2.8196 109.1965 10.4761 0.0000 0.0000 0.0000 -14.0269 0.7382 -65.9943 -77.5599 0.1207 4.8585 10.6128 -45.1444 2.8659 0.9878 0.1845
3.5562 107.8496 13.8747 0.0000 0.0000 0.0000 -11.6329 2.4885 -65.8979 -73.0198 -1.1293 4.2649 9.0885 -51.5014 4.0493 0.7101 0.0510
3.9029 106.7835 16.5359 0.0000 0.0000 0.0000 -7.0083 3.9525 -66.9619 -77.2661 -2.6881 2.0862 5.1344 -65.9941 3.1436 -0.7323 -0.2901
3.8011 105.7977 18.4900 0.0000 0.0000 0.0000 -4.0177 5.4156 -66.8524 -80.5640 -4.6844 -0.0643 -1.2538 -86.6435 1.8252 -1.0723 -0.8592
3.4413 105.2822 20.1254 0.0000 0.0000 0.0000 -3.1652 5.7261 -65.1791 -81.9370 -5.4525 -1.8859 -8.3435 -101.0608 1.5194 -0.9055 -0.7623
3.0127 105.4074 21.6333 0.0000 0.0000 0.0000 -3.5107 5.6630 -62.7887 -83.2023 -3.2287 -3.2871 -14.1301 -102.6711 1.5661 -0.9113 -0.9162
2.5305 105.9993 22.9482 0.0000 0.0000 0.0000 -4.8160 5.5051 -58.4265 -84.1204 2.2402 -5.2846 -15.8787 -91.2976 1.5044 -1.1810 -1.0873
2.2375 106.4439 24.2056 0.0000 0.0000 0.0000 -5.7980 4.9122 -53.1542 -86.4096 8.1948 -6.0823 -10.6205 -75.5460 1.1003 -1.6066 -0.6939
2.5328 106.5607 26.1792 0.0000 0.0000 0.0000 -7.0156 2.7323 -51.8203 -90.7296 9.2071 -3.4245 -4.0201 -73.9518 -0.1350 -1.5472 -0.9993
3.1401 106.4455 29.0673 0.0000 0.0000 0.0000 -8.2936 1.4758 -55.2726 -93.0047 9.0908 -1.4347 -0.7124 -72.6877 -0.9319 -1.4610 -1.0284
3.9128 106.1417 32.4806 0.0000 0.0000 0.0000 -9.6380 1.4133 -60.0776 -93.5718 7.8433 -0.4912 1.5334 -70.2837 -0.6857 -0.9981 -0.7855
4.9516 105.6006 36.4661 0.0000 0.0000 0.0000 -10.9035 2.5883 -66.4992 -93.1556 4.7294 -0.2610 2.7891 -67.2021 0.5338 -0.3228 -0.6535
6.1957 105.0245 40.9143 0.0000 0.0000 0.0000 -12.0876 4.5201 -71.5905 -85.4759 0.1217 0.3364 1.1078 -65.0613 3.4909 0.9927 -0.1631
6.8989 104.5084 44.3418 0.0000 0.0000 0.0000 -10.2097 5.4191 -70.1045 -79.9236 -3.3949 0.1564 -0.4128 -71.2627 4.8913 0.6985 -0.4330
7.0550 104.0502 46.8622 0.0000 0.0000 0.0000 -7.1355 5.4020 -69.1690 -82.5221 -6.1980 -1.2369 -4.5715 -87.0246 3.7867 -0.3264 -0.7871
6.6957 103.6228 48.6690 0.0000 0.0000 0.0000 -5.6511 5.4466 -67.8031 -85.5390 -7.8978 -2.0653 -10.1898 -106.1004 2.2357 -0.6600 -1.1196
6.1736 103.6431 50.3463 0.0000 0.0000 0.0000 -6.3734 5.5172 -65.3116 -87.0348 -7.4894 -2.4717 -15.1119 -113.7585 2.1500 -0.8722 -1.0932
5.5676 104.2541 51.7767 0.0000 0.0000 0.0000 -7.4152 5.4386 -60.4059 -87.6589 -3.5241 -3.7863 -17.4911 -108.3906 2.1727 -1.3903 -1.0590
5.0041 104.9855 53.0392 0.0000 0.0000 0.0000 -7.1375 5.3638 -53.8133 -88.4098 3.7778 -6.5427 -14.0272 -90.4033 1.9685 -2.2276 -0.3938
4.9385 105.0354 54.9638 0.0000 0.0000 0.0000 -7.0831 4.3448 -52.8430 -91.8859 8.0523 -6.5657 -6.1056 -74.6643 1.4729 -2.2220 0.2485
5.4340 105.0258 57.7013 0.0000 0.0000 0.0000 -7.7286 2.5464 -56.1998 -94.6364 7.5045 -3.2043 -1.4135 -73.7130 0.2163 -1.4331 -0.4769
6.1667 104.8415 61.1549 0.0000 0.0000 0.0000 -8.9380 2.2213 -62.2287 -95.8629 5.9127 -1.4472 0.7064 -72.2190 -0.1527 -1.1182 -0.6701
7.0687 104.4409 65.1526 0.0000 0.0000 0.0000 -10.1514 3.3778 -69.2124 -96.0082 2.8529 -1.1335 1.8608 -69.4574 0.7120 -0.5305 -0.4999
8.1169 104.0539 69.5070 0.0000 0.0000 0.0000 -11.0074 5.2332 -73.7748 -88.4315 -1.2936 -0.2330 0.4318 -67.5394 3.4264 0.6550 -0.0002
8.5991 103.7034 72.6674 0.0000 0.0000 0.0000 -8.8156 5.2884 -69.8105 -80.6100 -3.9278 0.2643 0.0374 -74.4275 4.4843 0.8591 -0.2825
8.5079 103.5519 74.8447 0.0000 0.0000 0.0000 -5.5551 5.1534 -67.5019 -83.1451 -5.9324 -1.1989 -3.2185 -90.8888 2.7556 -0.4382 -0.9562
7.9963 103.4856 76.6464 0.0000 0.0000 0.0000 -4.5906 5.1498 -65.8701 -85.9094 -7.2771 -2.3585 -9.1097 -107.7269 0.9053 -0.7722 -1.2024
7.3573 103.8170 78.4483 0.0000 0.0000 0.0000 -5.7231 5.1967 -63.9239 -87.6756 -6.3119 -3.3194 -14.2138 -112.0533 0.5275 -0.8208 -1.2483
6.6529 104.5842 80.0447 0.0000 0.0000 0.0000 -7.1096 5.1633 -59.3405 -88.3110 -1.5575 -5.0734 -15.5023 -103.3154 0.5701 -1.1325 -1.1994
6.0670 105.1483 81.6614 0.0000 0.0000 0.0000 -6.7006 5.0853 -54.4957 -89.6751 6.3088 -7.9171 -10.8558 -82.1968 0.5114 -1.8815 -0.3785
5.9760 105.2714 83.8944 0.0000 0.0000 0.0000 -6.8488 3.6916 -53.4848 -92.3870 8.9589 -5.9173 -3.0133 -74.1671 -0.4675 -1.3401 -0.3121
6.3667 105.2351 87.1310 0.0000 0.0000 0.0000 -7.5924 2.6166 -57.5943 -94.2819 8.3864 -3.1941 0.7226 -72.7934 -1.3084 -0.8556 -0.5996
7.0020 104.9994 91.0331 0.0000 0.0000 0.0000 -8.9428 2.9211 -63.5475 -94.6155 6.4423 -1.7527 2.8879 -70.2099 -1.0436 -0.4312 -0.5560
7.9187 104.5599 95.6097 0.0000 0.0000 0.0000 -10.2323 4.6009 -70.8226 -92.7665 2.6778 -0.9707 3.5224 -66.6538 0.6083 0.2654 -0.3880
